<svg xmlns="http://www.w3.org/2000/svg" width="1084" height="322" preserveAspectRatio="xMidYMid" style="margin:auto;background:rgba(NaN,NaN,NaN,0);display:block;z-index:1;position:relative"><defs><pattern id="b" width="1057.3" height="1057.3" x="0" y="0" patternUnits="userSpaceOnUse"><g transform="scale(4.13)"><defs><filter id="a" width="300%" height="300%" x="-100%" y="-100%" color-interpolation-filters="sRGB"><feGaussianBlur in="SourceGraphic" stdDeviation="7.2"/><feComponentTransfer result="cutoff"><feFuncA intercept="-40" slope="60" type="linear"/></feComponentTransfer></filter></defs><g filter="url(#a)" style="isolation:isolate"><g><circle cx="-117.5" cy="65.7" r="21.6" fill="#93dbe9"/><circle cx="138.5" cy="65.7" r="21.6" fill="#93dbe9"/><circle cx="394.5" cy="65.7" r="21.6" fill="#93dbe9"/><circle cx="-117.5" cy="321.7" r="21.6" fill="#93dbe9"/><circle cx="138.5" cy="321.7" r="21.6" fill="#93dbe9"/><circle cx="394.5" cy="321.7" r="21.6" fill="#93dbe9"/><circle cx="-117.5" cy="577.7" r="21.6" fill="#93dbe9"/><circle cx="138.5" cy="577.7" r="21.6" fill="#93dbe9"/><circle cx="394.5" cy="577.7" r="21.6" fill="#93dbe9"/><circle cx="-162.6" cy="209.5" r="24.5" fill="#93dbe9"/><circle cx="93.4" cy="209.5" r="24.5" fill="#93dbe9"/><circle cx="349.4" cy="209.5" r="24.5" fill="#93dbe9"/><circle cx="-162.6" cy="465.5" r="24.5" fill="#93dbe9"/><circle cx="93.4" cy="465.5" r="24.5" fill="#93dbe9"/><circle cx="349.4" cy="465.5" r="24.5" fill="#93dbe9"/><circle cx="-162.6" cy="721.5" r="24.5" fill="#93dbe9"/><circle cx="93.4" cy="721.5" r="24.5" fill="#93dbe9"/><circle cx="349.4" cy="721.5" r="24.5" fill="#93dbe9"/><circle cx="-147.4" cy="152.9" r="21.5" fill="#93dbe9"/><circle cx="108.6" cy="152.9" r="21.5" fill="#93dbe9"/><circle cx="364.6" cy="152.9" r="21.5" fill="#93dbe9"/><circle cx="-147.4" cy="408.9" r="21.5" fill="#93dbe9"/><circle cx="108.6" cy="408.9" r="21.5" fill="#93dbe9"/><circle cx="364.6" cy="408.9" r="21.5" fill="#93dbe9"/><circle cx="-147.4" cy="664.9" r="21.5" fill="#93dbe9"/><circle cx="108.6" cy="664.9" r="21.5" fill="#93dbe9"/><circle cx="364.6" cy="664.9" r="21.5" fill="#93dbe9"/><circle cx="-192.6" cy="77.2" r="23.2" fill="#93dbe9"/><circle cx="63.4" cy="77.2" r="23.2" fill="#93dbe9"/><circle cx="319.4" cy="77.2" r="23.2" fill="#93dbe9"/><circle cx="-192.6" cy="333.2" r="23.2" fill="#93dbe9"/><circle cx="63.4" cy="333.2" r="23.2" fill="#93dbe9"/><circle cx="319.4" cy="333.2" r="23.2" fill="#93dbe9"/><circle cx="-192.6" cy="589.2" r="23.2" fill="#93dbe9"/><circle cx="63.4" cy="589.2" r="23.2" fill="#93dbe9"/><circle cx="319.4" cy="589.2" r="23.2" fill="#93dbe9"/><circle cx="-79.4" cy="200.4" r="15.5" fill="#93dbe9"/><circle cx="176.6" cy="200.4" r="15.5" fill="#93dbe9"/><circle cx="432.6" cy="200.4" r="15.5" fill="#93dbe9"/><circle cx="-79.4" cy="456.4" r="15.5" fill="#93dbe9"/><circle cx="176.6" cy="456.4" r="15.5" fill="#93dbe9"/><circle cx="432.6" cy="456.4" r="15.5" fill="#93dbe9"/><circle cx="-79.4" cy="712.4" r="15.5" fill="#93dbe9"/><circle cx="176.6" cy="712.4" r="15.5" fill="#93dbe9"/><circle cx="432.6" cy="712.4" r="15.5" fill="#93dbe9"/><circle cx="-121.4" cy="56.5" r="16.9" fill="#93dbe9"/><circle cx="134.6" cy="56.5" r="16.9" fill="#93dbe9"/><circle cx="390.6" cy="56.5" r="16.9" fill="#93dbe9"/><circle cx="-121.4" cy="312.5" r="16.9" fill="#93dbe9"/><circle cx="134.6" cy="312.5" r="16.9" fill="#93dbe9"/><circle cx="390.6" cy="312.5" r="16.9" fill="#93dbe9"/><circle cx="-121.4" cy="568.5" r="16.9" fill="#93dbe9"/><circle cx="134.6" cy="568.5" r="16.9" fill="#93dbe9"/><circle cx="390.6" cy="568.5" r="16.9" fill="#93dbe9"/><circle cx="-124.1" cy="-1" r="19.3" fill="#93dbe9"/><circle cx="131.9" cy="-1" r="19.3" fill="#93dbe9"/><circle cx="387.9" cy="-1" r="19.3" fill="#93dbe9"/><circle cx="-124.1" cy="255" r="19.3" fill="#93dbe9"/><circle cx="131.9" cy="255" r="19.3" fill="#93dbe9"/><circle cx="387.9" cy="255" r="19.3" fill="#93dbe9"/><circle cx="-124.1" cy="511" r="19.3" fill="#93dbe9"/><circle cx="131.9" cy="511" r="19.3" fill="#93dbe9"/><circle cx="387.9" cy="511" r="19.3" fill="#93dbe9"/><circle cx="-124.1" cy="767" r="19.3" fill="#93dbe9"/><circle cx="131.9" cy="767" r="19.3" fill="#93dbe9"/><circle cx="387.9" cy="767" r="19.3" fill="#93dbe9"/><circle cx="-21.2" cy="208.9" r="19.4" fill="#93dbe9"/><circle cx="234.8" cy="208.9" r="19.4" fill="#93dbe9"/><circle cx="490.8" cy="208.9" r="19.4" fill="#93dbe9"/><circle cx="-21.2" cy="464.9" r="19.4" fill="#93dbe9"/><circle cx="234.8" cy="464.9" r="19.4" fill="#93dbe9"/><circle cx="490.8" cy="464.9" r="19.4" fill="#93dbe9"/><circle cx="-21.2" cy="720.9" r="19.4" fill="#93dbe9"/><circle cx="234.8" cy="720.9" r="19.4" fill="#93dbe9"/><circle cx="490.8" cy="720.9" r="19.4" fill="#93dbe9"/><circle cx="-73.6" cy="46.1" r="20.7" fill="#93dbe9"/><circle cx="182.4" cy="46.1" r="20.7" fill="#93dbe9"/><circle cx="438.4" cy="46.1" r="20.7" fill="#93dbe9"/><circle cx="-73.6" cy="302.1" r="20.7" fill="#93dbe9"/><circle cx="182.4" cy="302.1" r="20.7" fill="#93dbe9"/><circle cx="438.4" cy="302.1" r="20.7" fill="#93dbe9"/><circle cx="-73.6" cy="558.1" r="20.7" fill="#93dbe9"/><circle cx="182.4" cy="558.1" r="20.7" fill="#93dbe9"/><circle cx="438.4" cy="558.1" r="20.7" fill="#93dbe9"/><circle cx="-235.6" cy="20.1" r="18.1" fill="#93dbe9"/><circle cx="20.4" cy="20.1" r="18.1" fill="#93dbe9"/><circle cx="276.4" cy="20.1" r="18.1" fill="#93dbe9"/><circle cx="-235.6" cy="276.1" r="18.1" fill="#93dbe9"/><circle cx="20.4" cy="276.1" r="18.1" fill="#93dbe9"/><circle cx="276.4" cy="276.1" r="18.1" fill="#93dbe9"/><circle cx="-235.6" cy="532.1" r="18.1" fill="#93dbe9"/><circle cx="20.4" cy="532.1" r="18.1" fill="#93dbe9"/><circle cx="276.4" cy="532.1" r="18.1" fill="#93dbe9"/><animateTransform attributeName="transform" dur="50s" keyTimes="0;1" repeatCount="indefinite" type="translate" values="0 0;0 -256"/></g><g><circle cx="-29.3" cy="206.7" r="16.4" fill="#689cc5"/><circle cx="226.7" cy="206.7" r="16.4" fill="#689cc5"/><circle cx="482.7" cy="206.7" r="16.4" fill="#689cc5"/><circle cx="-29.3" cy="462.7" r="16.4" fill="#689cc5"/><circle cx="226.7" cy="462.7" r="16.4" fill="#689cc5"/><circle cx="482.7" cy="462.7" r="16.4" fill="#689cc5"/><circle cx="-29.3" cy="718.7" r="16.4" fill="#689cc5"/><circle cx="226.7" cy="718.7" r="16.4" fill="#689cc5"/><circle cx="482.7" cy="718.7" r="16.4" fill="#689cc5"/><circle cx="-119.8" cy="147.6" r="21.2" fill="#689cc5"/><circle cx="136.2" cy="147.6" r="21.2" fill="#689cc5"/><circle cx="392.2" cy="147.6" r="21.2" fill="#689cc5"/><circle cx="-119.8" cy="403.6" r="21.2" fill="#689cc5"/><circle cx="136.2" cy="403.6" r="21.2" fill="#689cc5"/><circle cx="392.2" cy="403.6" r="21.2" fill="#689cc5"/><circle cx="-119.8" cy="659.6" r="21.2" fill="#689cc5"/><circle cx="136.2" cy="659.6" r="21.2" fill="#689cc5"/><circle cx="392.2" cy="659.6" r="21.2" fill="#689cc5"/><circle cx="-99.2" cy="90.6" r="18.3" fill="#689cc5"/><circle cx="156.8" cy="90.6" r="18.3" fill="#689cc5"/><circle cx="412.8" cy="90.6" r="18.3" fill="#689cc5"/><circle cx="-99.2" cy="346.6" r="18.3" fill="#689cc5"/><circle cx="156.8" cy="346.6" r="18.3" fill="#689cc5"/><circle cx="412.8" cy="346.6" r="18.3" fill="#689cc5"/><circle cx="-99.2" cy="602.6" r="18.3" fill="#689cc5"/><circle cx="156.8" cy="602.6" r="18.3" fill="#689cc5"/><circle cx="412.8" cy="602.6" r="18.3" fill="#689cc5"/><circle cx="-190.2" cy="133.6" r="16.4" fill="#689cc5"/><circle cx="65.8" cy="133.6" r="16.4" fill="#689cc5"/><circle cx="321.8" cy="133.6" r="16.4" fill="#689cc5"/><circle cx="-190.2" cy="389.6" r="16.4" fill="#689cc5"/><circle cx="65.8" cy="389.6" r="16.4" fill="#689cc5"/><circle cx="321.8" cy="389.6" r="16.4" fill="#689cc5"/><circle cx="-190.2" cy="645.6" r="16.4" fill="#689cc5"/><circle cx="65.8" cy="645.6" r="16.4" fill="#689cc5"/><circle cx="321.8" cy="645.6" r="16.4" fill="#689cc5"/><circle cx="-75.4" cy="227.2" r="24.5" fill="#689cc5"/><circle cx="180.6" cy="227.2" r="24.5" fill="#689cc5"/><circle cx="436.6" cy="227.2" r="24.5" fill="#689cc5"/><circle cx="-75.4" cy="483.2" r="24.5" fill="#689cc5"/><circle cx="180.6" cy="483.2" r="24.5" fill="#689cc5"/><circle cx="436.6" cy="483.2" r="24.5" fill="#689cc5"/><circle cx="-75.4" cy="739.2" r="24.5" fill="#689cc5"/><circle cx="180.6" cy="739.2" r="24.5" fill="#689cc5"/><circle cx="436.6" cy="739.2" r="24.5" fill="#689cc5"/><circle cx="-52.1" cy="-12.5" r="18.6" fill="#689cc5"/><circle cx="203.9" cy="-12.5" r="18.6" fill="#689cc5"/><circle cx="459.9" cy="-12.5" r="18.6" fill="#689cc5"/><circle cx="-52.1" cy="243.5" r="18.6" fill="#689cc5"/><circle cx="203.9" cy="243.5" r="18.6" fill="#689cc5"/><circle cx="459.9" cy="243.5" r="18.6" fill="#689cc5"/><circle cx="-52.1" cy="499.5" r="18.6" fill="#689cc5"/><circle cx="203.9" cy="499.5" r="18.6" fill="#689cc5"/><circle cx="459.9" cy="499.5" r="18.6" fill="#689cc5"/><circle cx="-52.1" cy="755.5" r="18.6" fill="#689cc5"/><circle cx="203.9" cy="755.5" r="18.6" fill="#689cc5"/><circle cx="459.9" cy="755.5" r="18.6" fill="#689cc5"/><circle cx="-220.1" cy="191.9" r="23.9" fill="#689cc5"/><circle cx="35.9" cy="191.9" r="23.9" fill="#689cc5"/><circle cx="291.9" cy="191.9" r="23.9" fill="#689cc5"/><circle cx="-220.1" cy="447.9" r="23.9" fill="#689cc5"/><circle cx="35.9" cy="447.9" r="23.9" fill="#689cc5"/><circle cx="291.9" cy="447.9" r="23.9" fill="#689cc5"/><circle cx="-220.1" cy="703.9" r="23.9" fill="#689cc5"/><circle cx="35.9" cy="703.9" r="23.9" fill="#689cc5"/><circle cx="291.9" cy="703.9" r="23.9" fill="#689cc5"/><circle cx="-231.6" cy="190.4" r="21.5" fill="#689cc5"/><circle cx="24.4" cy="190.4" r="21.5" fill="#689cc5"/><circle cx="280.4" cy="190.4" r="21.5" fill="#689cc5"/><circle cx="-231.6" cy="446.4" r="21.5" fill="#689cc5"/><circle cx="24.4" cy="446.4" r="21.5" fill="#689cc5"/><circle cx="280.4" cy="446.4" r="21.5" fill="#689cc5"/><circle cx="-231.6" cy="702.4" r="21.5" fill="#689cc5"/><circle cx="24.4" cy="702.4" r="21.5" fill="#689cc5"/><circle cx="280.4" cy="702.4" r="21.5" fill="#689cc5"/><circle cx="-214.7" cy="40.8" r="21.5" fill="#689cc5"/><circle cx="41.3" cy="40.8" r="21.5" fill="#689cc5"/><circle cx="297.3" cy="40.8" r="21.5" fill="#689cc5"/><circle cx="-214.7" cy="296.8" r="21.5" fill="#689cc5"/><circle cx="41.3" cy="296.8" r="21.5" fill="#689cc5"/><circle cx="297.3" cy="296.8" r="21.5" fill="#689cc5"/><circle cx="-214.7" cy="552.8" r="21.5" fill="#689cc5"/><circle cx="41.3" cy="552.8" r="21.5" fill="#689cc5"/><circle cx="297.3" cy="552.8" r="21.5" fill="#689cc5"/><animateTransform attributeName="transform" dur="25s" keyTimes="0;1" repeatCount="indefinite" type="translate" values="0 0;0 -256"/></g><g><circle cx="-61.8" cy="223.7" r="19.5" fill="#5e6fa3"/><circle cx="194.2" cy="223.7" r="19.5" fill="#5e6fa3"/><circle cx="450.2" cy="223.7" r="19.5" fill="#5e6fa3"/><circle cx="-61.8" cy="479.7" r="19.5" fill="#5e6fa3"/><circle cx="194.2" cy="479.7" r="19.5" fill="#5e6fa3"/><circle cx="450.2" cy="479.7" r="19.5" fill="#5e6fa3"/><circle cx="-61.8" cy="735.7" r="19.5" fill="#5e6fa3"/><circle cx="194.2" cy="735.7" r="19.5" fill="#5e6fa3"/><circle cx="450.2" cy="735.7" r="19.5" fill="#5e6fa3"/><circle cx="-131" cy="32.3" r="20.3" fill="#5e6fa3"/><circle cx="125" cy="32.3" r="20.3" fill="#5e6fa3"/><circle cx="381" cy="32.3" r="20.3" fill="#5e6fa3"/><circle cx="-131" cy="288.3" r="20.3" fill="#5e6fa3"/><circle cx="125" cy="288.3" r="20.3" fill="#5e6fa3"/><circle cx="381" cy="288.3" r="20.3" fill="#5e6fa3"/><circle cx="-131" cy="544.3" r="20.3" fill="#5e6fa3"/><circle cx="125" cy="544.3" r="20.3" fill="#5e6fa3"/><circle cx="381" cy="544.3" r="20.3" fill="#5e6fa3"/><circle cx="-114.9" cy="20.5" r="18.1" fill="#5e6fa3"/><circle cx="141.1" cy="20.5" r="18.1" fill="#5e6fa3"/><circle cx="397.1" cy="20.5" r="18.1" fill="#5e6fa3"/><circle cx="-114.9" cy="276.5" r="18.1" fill="#5e6fa3"/><circle cx="141.1" cy="276.5" r="18.1" fill="#5e6fa3"/><circle cx="397.1" cy="276.5" r="18.1" fill="#5e6fa3"/><circle cx="-114.9" cy="532.5" r="18.1" fill="#5e6fa3"/><circle cx="141.1" cy="532.5" r="18.1" fill="#5e6fa3"/><circle cx="397.1" cy="532.5" r="18.1" fill="#5e6fa3"/><circle cx="-104.8" cy="44.9" r="21.6" fill="#5e6fa3"/><circle cx="151.2" cy="44.9" r="21.6" fill="#5e6fa3"/><circle cx="407.2" cy="44.9" r="21.6" fill="#5e6fa3"/><circle cx="-104.8" cy="300.9" r="21.6" fill="#5e6fa3"/><circle cx="151.2" cy="300.9" r="21.6" fill="#5e6fa3"/><circle cx="407.2" cy="300.9" r="21.6" fill="#5e6fa3"/><circle cx="-104.8" cy="556.9" r="21.6" fill="#5e6fa3"/><circle cx="151.2" cy="556.9" r="21.6" fill="#5e6fa3"/><circle cx="407.2" cy="556.9" r="21.6" fill="#5e6fa3"/><circle cx="-237.9" cy="132.1" r="13.5" fill="#5e6fa3"/><circle cx="18.1" cy="132.1" r="13.5" fill="#5e6fa3"/><circle cx="274.1" cy="132.1" r="13.5" fill="#5e6fa3"/><circle cx="-237.9" cy="388.1" r="13.5" fill="#5e6fa3"/><circle cx="18.1" cy="388.1" r="13.5" fill="#5e6fa3"/><circle cx="274.1" cy="388.1" r="13.5" fill="#5e6fa3"/><circle cx="-237.9" cy="644.1" r="13.5" fill="#5e6fa3"/><circle cx="18.1" cy="644.1" r="13.5" fill="#5e6fa3"/><circle cx="274.1" cy="644.1" r="13.5" fill="#5e6fa3"/><circle cx="-114.1" cy="143.5" r="19.4" fill="#5e6fa3"/><circle cx="141.9" cy="143.5" r="19.4" fill="#5e6fa3"/><circle cx="397.9" cy="143.5" r="19.4" fill="#5e6fa3"/><circle cx="-114.1" cy="399.5" r="19.4" fill="#5e6fa3"/><circle cx="141.9" cy="399.5" r="19.4" fill="#5e6fa3"/><circle cx="397.9" cy="399.5" r="19.4" fill="#5e6fa3"/><circle cx="-114.1" cy="655.5" r="19.4" fill="#5e6fa3"/><circle cx="141.9" cy="655.5" r="19.4" fill="#5e6fa3"/><circle cx="397.9" cy="655.5" r="19.4" fill="#5e6fa3"/><circle cx="-230.4" cy="236.4" r="17.2" fill="#5e6fa3"/><circle cx="25.6" cy="236.4" r="17.2" fill="#5e6fa3"/><circle cx="281.6" cy="236.4" r="17.2" fill="#5e6fa3"/><circle cx="-230.4" cy="492.4" r="17.2" fill="#5e6fa3"/><circle cx="25.6" cy="492.4" r="17.2" fill="#5e6fa3"/><circle cx="281.6" cy="492.4" r="17.2" fill="#5e6fa3"/><circle cx="-230.4" cy="748.4" r="17.2" fill="#5e6fa3"/><circle cx="25.6" cy="748.4" r="17.2" fill="#5e6fa3"/><circle cx="281.6" cy="748.4" r="17.2" fill="#5e6fa3"/><circle cx="-29.9" cy="168.7" r="24.5" fill="#5e6fa3"/><circle cx="226.1" cy="168.7" r="24.5" fill="#5e6fa3"/><circle cx="482.1" cy="168.7" r="24.5" fill="#5e6fa3"/><circle cx="-29.9" cy="424.7" r="24.5" fill="#5e6fa3"/><circle cx="226.1" cy="424.7" r="24.5" fill="#5e6fa3"/><circle cx="482.1" cy="424.7" r="24.5" fill="#5e6fa3"/><circle cx="-29.9" cy="680.7" r="24.5" fill="#5e6fa3"/><circle cx="226.1" cy="680.7" r="24.5" fill="#5e6fa3"/><circle cx="482.1" cy="680.7" r="24.5" fill="#5e6fa3"/><circle cx="-19.7" cy="30.2" r="18.7" fill="#5e6fa3"/><circle cx="236.3" cy="30.2" r="18.7" fill="#5e6fa3"/><circle cx="492.3" cy="30.2" r="18.7" fill="#5e6fa3"/><circle cx="-19.7" cy="286.2" r="18.7" fill="#5e6fa3"/><circle cx="236.3" cy="286.2" r="18.7" fill="#5e6fa3"/><circle cx="492.3" cy="286.2" r="18.7" fill="#5e6fa3"/><circle cx="-19.7" cy="542.2" r="18.7" fill="#5e6fa3"/><circle cx="236.3" cy="542.2" r="18.7" fill="#5e6fa3"/><circle cx="492.3" cy="542.2" r="18.7" fill="#5e6fa3"/><animateTransform attributeName="transform" dur="16.666666666666668s" keyTimes="0;1" repeatCount="indefinite" type="translate" values="0 0;0 -256"/></g></g></g></pattern></defs><path fill="url(#b)" d="M0 0h1084v322H0z"/></svg>